<svg xmlns="http://www.w3.org/2000/svg" viewBox="0 0 1099.22 245.48"><defs><style>.cls-1{fill:#ff8961;}.cls-2{fill:#fff;}.cls-3{fill:#7c80de;}</style></defs><g id="Camada_2" data-name="Camada 2"><g id="Camada_1-2" data-name="Camada 1"><path class="cls-1" d="M874,245.48a13.67,13.67,0,0,1-13.53-15.59l10.38-73A13.67,13.67,0,0,1,898,160.68l-4.46,31.38L935.18,149a13.7,13.7,0,0,1,9.79-4.17l98.23-.27,27.55-87.15a23.1,23.1,0,0,0-22-30.07H915.14a13.67,13.67,0,1,1,0-27.34h133.59a50.44,50.44,0,0,1,48.09,65.65l-30.56,96.68a13.67,13.67,0,0,1-13,9.55l-102.46.28-66.95,69.16A13.64,13.64,0,0,1,874,245.48Z"/><path class="cls-1" d="M1031.43,76.88H918.55a13.67,13.67,0,1,1,0-27.34h112.88a13.67,13.67,0,0,1,0,27.34Z"/><path class="cls-1" d="M884.41,76.89c-.45,0-.9,0-1.35-.07a12.07,12.07,0,0,1-1.32-.21,11.74,11.74,0,0,1-1.3-.32,11,11,0,0,1-1.25-.46,13.84,13.84,0,0,1-2.37-1.25c-.37-.25-.74-.52-1.08-.8s-.68-.59-1-.9-.61-.65-.89-1A12.16,12.16,0,0,1,873,70.8a11.19,11.19,0,0,1-.68-1.15,13.35,13.35,0,0,1-.57-1.21c-.17-.41-.33-.83-.46-1.26s-.24-.86-.32-1.3-.15-.88-.21-1.32-.06-.9-.06-1.34,0-.91.06-1.35.12-.89.21-1.33.2-.87.32-1.3.29-.84.46-1.26.36-.81.57-1.21a12.37,12.37,0,0,1,.68-1.15q.38-.55.81-1.08c.28-.35.58-.68.89-1s.65-.61,1-.9.71-.55,1.08-.8a13.35,13.35,0,0,1,1.15-.68c.39-.21.81-.4,1.22-.57a13.31,13.31,0,0,1,1.25-.46c.43-.12.86-.23,1.3-.32s.88-.15,1.32-.21a15.22,15.22,0,0,1,2.7,0c.44.06.88.12,1.32.21s.87.2,1.3.32.84.29,1.26.46A14.26,14.26,0,0,1,892,51.84c.37.25.74.52,1.08.8s.68.59,1,.9.61.65.9,1,.55.71.8,1.08a12.37,12.37,0,0,1,.68,1.15A12.06,12.06,0,0,1,897,58c.17.42.33.84.46,1.26s.24.87.32,1.3a11.87,11.87,0,0,1,.21,1.33q.06.66.06,1.35c0,.44,0,.89-.06,1.34a11.7,11.7,0,0,1-.21,1.32c-.08.44-.2.87-.32,1.3s-.29.85-.46,1.26a14.26,14.26,0,0,1-1.25,2.36,12.05,12.05,0,0,1-.8,1.08c-.29.35-.59.68-.9,1s-.65.61-1,.9-.71.55-1.08.8a14.26,14.26,0,0,1-2.36,1.25,11.91,11.91,0,0,1-1.26.46,11.74,11.74,0,0,1-1.3.32,12.07,12.07,0,0,1-1.32.21C885.31,76.86,884.86,76.89,884.41,76.89Z"/><path class="cls-1" d="M1019.46,119.8H906.58a13.67,13.67,0,0,1,0-27.34h112.88a13.67,13.67,0,1,1,0,27.34Z"/><path class="cls-1" d="M872.45,119.8a12.34,12.34,0,0,1-1.35-.07,11.67,11.67,0,0,1-1.32-.2c-.44-.09-.87-.2-1.3-.33a11.1,11.1,0,0,1-1.26-.45,13.35,13.35,0,0,1-1.21-.57c-.39-.21-.78-.44-1.15-.68s-.74-.52-1.08-.8-.68-.59-1-.9-.61-.65-.9-1-.55-.71-.8-1.08a11.19,11.19,0,0,1-.68-1.15c-.21-.4-.4-.8-.58-1.21s-.32-.84-.45-1.26a11.74,11.74,0,0,1-.32-1.3,11.87,11.87,0,0,1-.21-1.33c0-.44-.07-.89-.07-1.34s0-.9.07-1.35a12.07,12.07,0,0,1,.21-1.32,11.74,11.74,0,0,1,.32-1.3q.2-.64.45-1.26c.18-.41.37-.82.58-1.21a11.19,11.19,0,0,1,.68-1.15c.25-.37.52-.73.8-1.08s.58-.68.9-1,.65-.61,1-.9a12,12,0,0,1,1.08-.79c.37-.25.76-.48,1.15-.69s.8-.4,1.21-.58.83-.31,1.26-.44a9.9,9.9,0,0,1,1.3-.33,11.67,11.67,0,0,1,1.32-.2,13.43,13.43,0,0,1,2.69,0,11.85,11.85,0,0,1,1.33.2,10.32,10.32,0,0,1,1.3.33c.42.13.84.27,1.26.44s.81.37,1.21.58.77.44,1.15.69.73.51,1.08.79.68.58,1,.9.61.66.9,1,.55.71.8,1.08.47.76.68,1.15a13.35,13.35,0,0,1,.57,1.21c.17.41.33.83.46,1.26s.23.86.32,1.3a12,12,0,0,1,.2,1.32,12.34,12.34,0,0,1,.07,1.35,13.85,13.85,0,0,1-.27,2.67c-.09.43-.2.88-.32,1.3s-.29.85-.46,1.26-.36.81-.57,1.21-.44.78-.68,1.15-.52.73-.8,1.08-.59.68-.9,1-.65.62-1,.9-.71.55-1.08.8-.76.47-1.15.68-.8.4-1.21.57a12.68,12.68,0,0,1-1.26.45c-.43.13-.87.24-1.3.33a13.85,13.85,0,0,1-2.67.27Z"/><path class="cls-2" d="M0,32.41a3.81,3.81,0,0,1,.85-2.6,3.27,3.27,0,0,1,2.57-1H53a33.87,33.87,0,0,1,10.09,1.48,34.44,34.44,0,0,1,8.69,4.07,35.72,35.72,0,0,1,7.14,6.21,40.3,40.3,0,0,1,5.4,7.81,39.3,39.3,0,0,1,3.37,8.81,37.84,37.84,0,0,1,1.17,9.35,38.37,38.37,0,0,1-2.52,13.66,37.8,37.8,0,0,1-7.18,11.88A36.88,36.88,0,0,1,68,100.53a32.85,32.85,0,0,1-14.44,3.3H30v37q0,3.33-3.57,3.33h-23a3.66,3.66,0,0,1-2.49-.81A3.17,3.17,0,0,1,0,140.78Zm58.45,34a13.82,13.82,0,0,0-.82-4.65,13,13,0,0,0-2.36-4.16,12.76,12.76,0,0,0-3.77-3,10.62,10.62,0,0,0-5-1.16H30V79.38H46.5a11.11,11.11,0,0,0,5-1.13,11.79,11.79,0,0,0,3.77-2.91,12.77,12.77,0,0,0,2.32-4.11A14.36,14.36,0,0,0,58.45,66.41Z"/><path class="cls-2" d="M179.23,132.32a51.48,51.48,0,0,1-15.37,9.81,46.73,46.73,0,0,1-18.08,3.54A52.73,52.73,0,0,1,109.06,131a51.5,51.5,0,0,1-11.33-16.18,48.7,48.7,0,0,1-4.19-20.26,52.62,52.62,0,0,1,6.4-25.23,51.33,51.33,0,0,1,7.45-10.28,47.58,47.58,0,0,1,9.82-8,48.93,48.93,0,0,1,11.8-5.2A47.63,47.63,0,0,1,142.44,44a45.82,45.82,0,0,1,12.5,1.71,48.88,48.88,0,0,1,11.37,4.81A49.83,49.83,0,0,1,176.05,58a50.36,50.36,0,0,1,7.61,9.51,46.25,46.25,0,0,1,4.93,11,42.26,42.26,0,0,1,1.74,12.08c0,2.69,0,4.88-.11,6.59a7.44,7.44,0,0,1-1.21,4.08,5.8,5.8,0,0,1-3.61,2.09,35.05,35.05,0,0,1-7.41.59H122.1a19.27,19.27,0,0,0,3.15,8.3,19.56,19.56,0,0,0,5.47,5.32,21.86,21.86,0,0,0,6.6,2.83,27.69,27.69,0,0,0,6.59.86,29.54,29.54,0,0,0,5.75-.59,40.86,40.86,0,0,0,5.7-1.55,33,33,0,0,0,5-2.25,16.61,16.61,0,0,0,3.69-2.68,15.58,15.58,0,0,1,2.13-1.51,3.56,3.56,0,0,1,4,.19,16.43,16.43,0,0,1,2.37,2l8.23,9.32a5.2,5.2,0,0,1,1.08,1.82,5.86,5.86,0,0,1,.23,1.67,4.31,4.31,0,0,1-.85,2.68A9.73,9.73,0,0,1,179.23,132.32ZM141.9,67.66a14.84,14.84,0,0,0-5.86,1.2,22.1,22.1,0,0,0-5.32,3.22,27.24,27.24,0,0,0-4.46,4.58,28.28,28.28,0,0,0-3.23,5.2H162.7a47.15,47.15,0,0,0-3.53-5.59,23.81,23.81,0,0,0-4.35-4.5,18.94,18.94,0,0,0-5.59-3A22.54,22.54,0,0,0,141.9,67.66Z"/><path class="cls-2" d="M273.7,134.41a48,48,0,0,1-4.78,4.15,37.35,37.35,0,0,1-5.82,3.69,34.58,34.58,0,0,1-6.75,2.64,28.44,28.44,0,0,1-7.65,1,47.22,47.22,0,0,1-19.44-4A46.5,46.5,0,0,1,214,131.11a49.93,49.93,0,0,1-10-16.18,57.46,57.46,0,0,1,0-40.09,50,50,0,0,1,10-16.15A46,46,0,0,1,229.26,47.9,47.69,47.69,0,0,1,248.7,44a38.45,38.45,0,0,1,7.81.74,27.49,27.49,0,0,1,11.79,5.47,42.19,42.19,0,0,1,4.62,4.27V22.09a6.1,6.1,0,0,1,1.52-4.19A5.73,5.73,0,0,1,279,16.19h17.46a6,6,0,0,1,2.14.43,7.17,7.17,0,0,1,2.05,1.2,6.37,6.37,0,0,1,1.52,1.86,5,5,0,0,1,.58,2.41v116q0,6-6.29,6H281.23a6,6,0,0,1-2.41-.38,3.88,3.88,0,0,1-1.44-1.13,8.05,8.05,0,0,1-1-1.86c-.31-.75-.7-1.62-1.17-2.6ZM228.29,94.9a28.38,28.38,0,0,0,1.59,9.59,22.68,22.68,0,0,0,4.54,7.72,21.37,21.37,0,0,0,7.1,5.16,21.83,21.83,0,0,0,9.2,1.91,24.55,24.55,0,0,0,9.35-1.79,23.68,23.68,0,0,0,7.65-4.93A24.57,24.57,0,0,0,275.17,96V94.9a24.56,24.56,0,0,0-1.86-9.47,25.1,25.1,0,0,0-5.16-7.92,24.63,24.63,0,0,0-7.76-5.39,23.59,23.59,0,0,0-9.67-2,21.12,21.12,0,0,0-9.2,2,21.59,21.59,0,0,0-7.1,5.39,24.42,24.42,0,0,0-4.54,7.92A28.23,28.23,0,0,0,228.29,94.9Z"/><path class="cls-2" d="M402.86,132.32a51.48,51.48,0,0,1-15.37,9.81,46.73,46.73,0,0,1-18.08,3.54A52.73,52.73,0,0,1,332.69,131a51.5,51.5,0,0,1-11.33-16.18,48.7,48.7,0,0,1-4.19-20.26,52.62,52.62,0,0,1,6.4-25.23A50.94,50.94,0,0,1,331,59.08a47.58,47.58,0,0,1,9.82-8,48.93,48.93,0,0,1,11.8-5.2A47.63,47.63,0,0,1,366.07,44a45.82,45.82,0,0,1,12.5,1.71,48.88,48.88,0,0,1,11.37,4.81A49.83,49.83,0,0,1,399.68,58a50.76,50.76,0,0,1,7.61,9.51,46.25,46.25,0,0,1,4.93,11A42.26,42.26,0,0,1,414,90.56c0,2.69,0,4.88-.11,6.59a7.44,7.44,0,0,1-1.21,4.08,5.8,5.8,0,0,1-3.61,2.09,35.05,35.05,0,0,1-7.41.59H345.73a19.27,19.27,0,0,0,3.15,8.3,19.56,19.56,0,0,0,5.47,5.32,21.86,21.86,0,0,0,6.6,2.83,27.69,27.69,0,0,0,6.59.86,29.54,29.54,0,0,0,5.75-.59,40.86,40.86,0,0,0,5.7-1.55,33,33,0,0,0,5.05-2.25,17.09,17.09,0,0,0,3.69-2.68,15.58,15.58,0,0,1,2.13-1.51,3.56,3.56,0,0,1,4,.19,16.43,16.43,0,0,1,2.37,2l8.22,9.32A5.1,5.1,0,0,1,405.5,126a5.86,5.86,0,0,1,.23,1.67,4.31,4.31,0,0,1-.85,2.68A9.73,9.73,0,0,1,402.86,132.32ZM365.53,67.66a14.84,14.84,0,0,0-5.86,1.2,22.1,22.1,0,0,0-5.32,3.22,27.69,27.69,0,0,0-4.47,4.58,28.77,28.77,0,0,0-3.22,5.2h39.67a47.15,47.15,0,0,0-3.53-5.59,23.81,23.81,0,0,0-4.35-4.5,18.94,18.94,0,0,0-5.59-3A22.54,22.54,0,0,0,365.53,67.66Z"/><path class="cls-3" d="M409.38,32.25a3.15,3.15,0,0,1,1.05-2.48,3.82,3.82,0,0,1,2.6-.93h83.52a4,4,0,0,1,2.49.85,3.52,3.52,0,0,1,1.24,2.56V51.52a4.39,4.39,0,0,1-1,2.67,3.27,3.27,0,0,1-2.76,1.28H469.77v85a3.71,3.71,0,0,1-1,2.53,3.38,3.38,0,0,1-2.64,1.12H443.37a3.61,3.61,0,0,1-2.48-1.05,3.35,3.35,0,0,1-1.16-2.6v-85H413a3.61,3.61,0,0,1-2.6-1,3.88,3.88,0,0,1-1.05-2.94Z"/><path class="cls-3" d="M604.29,142.8a4.72,4.72,0,0,1-2.13,1.09,10.27,10.27,0,0,1-2.14.23H588.3a5.25,5.25,0,0,1-2.4-.5,5.08,5.08,0,0,1-1.71-1.36,8,8,0,0,1-1.17-1.93,15.7,15.7,0,0,1-.77-2.25l-1.63-7.59a19.56,19.56,0,0,1-3.88,5.08,32.15,32.15,0,0,1-6.72,4.91,41.94,41.94,0,0,1-20.53,5.19,34.55,34.55,0,0,1-15.68-3.42,34.05,34.05,0,0,1-11.53-9.31,41.21,41.21,0,0,1-7.1-13.78,57.4,57.4,0,0,1-2.41-16.81V51.51a6.76,6.76,0,0,1,1.28-4.46,5.08,5.08,0,0,1,4.08-1.52h17.93c2.23,0,3.75.38,4.58,1.13s1.24,2.22,1.24,4.39v50.59a16,16,0,0,0,1.28,6.33,17.83,17.83,0,0,0,3.46,5.28,16,16,0,0,0,5.08,3.62,14.77,14.77,0,0,0,6.17,1.32,22.2,22.2,0,0,0,6.06-.93,20,20,0,0,0,6.05-2.92,16.53,16.53,0,0,0,4.66-5.09,14.26,14.26,0,0,0,1.86-7.46V51.28a7.28,7.28,0,0,1,.51-2.64,4.19,4.19,0,0,1,1.51-2,7.07,7.07,0,0,1,1.9-.85,8,8,0,0,1,2.06-.24H600c2.23,0,3.83.55,4.81,1.63a6.22,6.22,0,0,1,1.48,4.35v86.87a5.66,5.66,0,0,1-.66,2.71,5,5,0,0,1-1.82,1.95Z"/><path class="cls-3" d="M692.08,134.41a49,49,0,0,1-4.77,4.15,37.92,37.92,0,0,1-5.83,3.69,34.58,34.58,0,0,1-6.75,2.64,28.37,28.37,0,0,1-7.64,1,47.27,47.27,0,0,1-19.45-4,46.5,46.5,0,0,1-15.29-10.83,49.74,49.74,0,0,1-10-16.18,54.89,54.89,0,0,1-3.61-20,54.74,54.74,0,0,1,3.61-20.06,49.81,49.81,0,0,1,10-16.15A46,46,0,0,1,647.64,47.9,47.74,47.74,0,0,1,667.09,44a38.42,38.42,0,0,1,7.8.74,28.15,28.15,0,0,1,6.44,2.13,28.73,28.73,0,0,1,5.36,3.34,42.1,42.1,0,0,1,4.61,4.27V22.09a6.1,6.1,0,0,1,1.52-4.19,5.75,5.75,0,0,1,4.54-1.71h17.46a5.91,5.91,0,0,1,2.14.43,7.22,7.22,0,0,1,2.06,1.2,6.34,6.34,0,0,1,1.51,1.86,5,5,0,0,1,.58,2.41v116q0,6-6.29,6H699.61a6,6,0,0,1-2.41-.38,3.85,3.85,0,0,1-1.43-1.13,7.7,7.7,0,0,1-1-1.86c-.31-.75-.7-1.62-1.17-2.6ZM646.67,94.9a28.38,28.38,0,0,0,1.59,9.59,22.68,22.68,0,0,0,4.54,7.72,21.41,21.41,0,0,0,7.11,5.16,21.75,21.75,0,0,0,9.19,1.91,24.64,24.64,0,0,0,9.36-1.79,23.74,23.74,0,0,0,7.64-4.93A24.57,24.57,0,0,0,693.55,96V94.9a24.56,24.56,0,0,0-1.86-9.47,25.1,25.1,0,0,0-5.16-7.92,24.63,24.63,0,0,0-7.76-5.39,23.59,23.59,0,0,0-9.67-2,21,21,0,0,0-9.19,2,21.63,21.63,0,0,0-7.11,5.39,24.42,24.42,0,0,0-4.54,7.92A28.23,28.23,0,0,0,646.67,94.9Z"/><path class="cls-3" d="M735.63,94.9a51.59,51.59,0,0,1,1.82-13.74,50.32,50.32,0,0,1,13-22.47,49.32,49.32,0,0,1,10.29-7.88A51.89,51.89,0,0,1,786.7,44a50.6,50.6,0,0,1,36,14.71,51.33,51.33,0,0,1,10.87,16.15,50.21,50.21,0,0,1,4,20.06,50.73,50.73,0,0,1-1.83,13.7,52,52,0,0,1-5.12,12.23,50.45,50.45,0,0,1-30.35,23.28,50.81,50.81,0,0,1-13.55,1.79,51.93,51.93,0,0,1-13.7-1.79,50.31,50.31,0,0,1-30.43-23.28,51.36,51.36,0,0,1-6.94-25.93Zm28.33,0a28.38,28.38,0,0,0,1.59,9.59,23.09,23.09,0,0,0,4.5,7.72,21,21,0,0,0,7.07,5.16,22.13,22.13,0,0,0,9.35,1.91,21.3,21.3,0,0,0,9.12-1.91,20.32,20.32,0,0,0,6.91-5.16,22.78,22.78,0,0,0,4.35-7.72,30.83,30.83,0,0,0,0-19.06,24.55,24.55,0,0,0-4.35-7.92,20.34,20.34,0,0,0-16-7.37,21.41,21.41,0,0,0-9.35,2,21.17,21.17,0,0,0-7.07,5.39,24.88,24.88,0,0,0-4.5,7.92A28.23,28.23,0,0,0,764,94.9Z"/><path class="cls-2" d="M634.62,208.73a1.1,1.1,0,0,1-1.25,1.25h-2.94c-.87,0-1.31-.41-1.31-1.25v-2.94a1.23,1.23,0,0,1,.35-.91,1.25,1.25,0,0,1,.9-.34h2.94a1.31,1.31,0,0,1,1,.35,1.25,1.25,0,0,1,.34.9Z"/><path class="cls-2" d="M641.44,191.93a17.71,17.71,0,0,1,1.5-7.26,19.58,19.58,0,0,1,4-6,19.14,19.14,0,0,1,6-4,18.37,18.37,0,0,1,12.14-.81,18.1,18.1,0,0,1,4.47,1.91,19.17,19.17,0,0,1,6.75,6.76,18.53,18.53,0,0,1,1.91,14.37,17.87,17.87,0,0,1-1.91,4.46,19.45,19.45,0,0,1-2.95,3.8,19,19,0,0,1-8.27,4.83,18.4,18.4,0,0,1-9.84,0A18.89,18.89,0,0,1,644,201.34a19.48,19.48,0,0,1-1.91-4.46A17.72,17.72,0,0,1,641.44,191.93Zm5.67,0a13.14,13.14,0,0,0,1,5.14,13.78,13.78,0,0,0,2.8,4.25,13.45,13.45,0,0,0,4.13,2.9,12,12,0,0,0,5.08,1.09,11.79,11.79,0,0,0,5-1.09,13.48,13.48,0,0,0,4.11-2.9,13.67,13.67,0,0,0,2.76-4.25,13.36,13.36,0,0,0,0-10.24,13.88,13.88,0,0,0-2.76-4.32,13.39,13.39,0,0,0-4.11-3,11.53,11.53,0,0,0-5-1.12,11.68,11.68,0,0,0-5.08,1.12,13.35,13.35,0,0,0-4.13,3,14,14,0,0,0-2.8,4.32A13.13,13.13,0,0,0,647.11,191.93Z"/><path class="cls-2" d="M690.69,178.56a19.14,19.14,0,0,1,1.8-2,13.7,13.7,0,0,1,2.23-1.71,12.84,12.84,0,0,1,2.76-1.23,11.43,11.43,0,0,1,3.39-.47,14.86,14.86,0,0,1,6.19,1.22,12.79,12.79,0,0,1,4.49,3.3,14.25,14.25,0,0,1,2.74,4.92,19.26,19.26,0,0,1,.93,6.05v19.37a2,2,0,0,1-.5,1.45,1.78,1.78,0,0,1-1.27.48h-2.11c-.71,0-1.16-.14-1.36-.42a2.58,2.58,0,0,1-.3-1.43V188.68a13.37,13.37,0,0,0-.47-3.49,9.5,9.5,0,0,0-1.54-3.24,8,8,0,0,0-2.84-2.37,9.31,9.31,0,0,0-4.33-.91,10.91,10.91,0,0,0-3.37.58A10.46,10.46,0,0,0,694,181a9.37,9.37,0,0,0-2.35,2.82,7.86,7.86,0,0,0-.93,3.85v21.08a1.11,1.11,0,0,1-1.26,1.25H686.5c-.9,0-1.34-.41-1.34-1.25V175a1.17,1.17,0,0,1,.37-.91,1.26,1.26,0,0,1,.88-.35h3a1.25,1.25,0,0,1,1,.38,1.21,1.21,0,0,1,.36.88Z"/><path class="cls-2" d="M727,208.73a1.1,1.1,0,0,1-1.25,1.25h-2.94c-.89,0-1.34-.41-1.34-1.25V164.27a1.16,1.16,0,0,1,.37-.91,1.24,1.24,0,0,1,.88-.35h3a1.26,1.26,0,0,1,.95.37,1.25,1.25,0,0,1,.36.89Z"/><path class="cls-2" d="M740.65,167.18a1.1,1.1,0,0,1-1.25,1.25h-2.94c-.89,0-1.34-.42-1.34-1.25v-2.94a1.17,1.17,0,0,1,.37-.91,1.26,1.26,0,0,1,.89-.35h3a1.3,1.3,0,0,1,1,.36,1.21,1.21,0,0,1,.35.9Zm0,41.55A1.1,1.1,0,0,1,739.4,210h-2.94c-.89,0-1.34-.41-1.34-1.25V175a1.17,1.17,0,0,1,.37-.91,1.26,1.26,0,0,1,.89-.35h3a1.27,1.27,0,0,1,1,.38,1.2,1.2,0,0,1,.35.88Z"/><path class="cls-2" d="M754.26,178.56a20.22,20.22,0,0,1,1.79-2,13.79,13.79,0,0,1,2.24-1.71,13,13,0,0,1,2.75-1.23,11.55,11.55,0,0,1,3.4-.47,14.9,14.9,0,0,1,6.19,1.22,12.88,12.88,0,0,1,4.49,3.3,14.25,14.25,0,0,1,2.74,4.92,19.55,19.55,0,0,1,.92,6.05v19.37a1.91,1.91,0,0,1-.5,1.45A1.74,1.74,0,0,1,777,210H774.9q-1,0-1.35-.42a2.58,2.58,0,0,1-.3-1.43V188.68a13.8,13.8,0,0,0-.47-3.49,9.5,9.5,0,0,0-1.54-3.24,8,8,0,0,0-2.84-2.37,9.34,9.34,0,0,0-4.33-.91,10.81,10.81,0,0,0-3.37.58,10.46,10.46,0,0,0-3.16,1.73,9.26,9.26,0,0,0-2.36,2.82,8,8,0,0,0-.92,3.85v21.08A1.11,1.11,0,0,1,753,210h-2.93c-.9,0-1.35-.41-1.35-1.25V175a1.2,1.2,0,0,1,.37-.91,1.28,1.28,0,0,1,.89-.35h3a1.27,1.27,0,0,1,.95.38,1.21,1.21,0,0,1,.36.88Z"/><path class="cls-2" d="M810.87,201.69a4.53,4.53,0,0,1,.55-.43,1.06,1.06,0,0,1,.62-.2,1.11,1.11,0,0,1,.83.51l.92,1.26c.24.32.43.58.59.77s.26.36.34.45a2.41,2.41,0,0,1,.23.36,1.07,1.07,0,0,1,.08.41,1.19,1.19,0,0,1-.24.67,4.1,4.1,0,0,1-.84.84,23.25,23.25,0,0,1-2.56,1.76,19.18,19.18,0,0,1-2.77,1.35,18.16,18.16,0,0,1-11.38.53,18.82,18.82,0,0,1-4.47-1.91,19.58,19.58,0,0,1-3.82-2.95,19.84,19.84,0,0,1-3-3.79,18.56,18.56,0,0,1-1.94-4.47,17.72,17.72,0,0,1-.68-4.95,19.15,19.15,0,0,1,2.46-9.44,18.54,18.54,0,0,1,2.87-3.79,18.09,18.09,0,0,1,3.78-2.94,18.92,18.92,0,0,1,4.53-1.89,19.63,19.63,0,0,1,9.4-.19,19.62,19.62,0,0,1,4.05,1.41,19.06,19.06,0,0,1,3.64,2.3,18.34,18.34,0,0,1,3,3.13,17,17,0,0,1,2.71,5.59,25.32,25.32,0,0,1,.83,7.22c0,.89-.42,1.34-1.26,1.34h-30a12.85,12.85,0,0,0,1.69,4.22,14.37,14.37,0,0,0,2.91,3.38,13.15,13.15,0,0,0,3.78,2.25,11.58,11.58,0,0,0,4.31.82,12.29,12.29,0,0,0,2.83-.3,11.39,11.39,0,0,0,2.31-.8,11.81,11.81,0,0,0,1.93-1.14c.59-.43,1.16-.87,1.71-1.33Zm-15.63-21.11a14.33,14.33,0,0,0-3.74,3.67,13.1,13.1,0,0,0-2.14,4.86h25.79a11.37,11.37,0,0,0-1.47-4.31,12.12,12.12,0,0,0-2.9-3.31,13.25,13.25,0,0,0-3.92-2.12,13.79,13.79,0,0,0-4.52-.76,14.16,14.16,0,0,0-3.66.49A12.92,12.92,0,0,0,795.24,180.58Z"/></g></g></svg>